<svg id="Capa_1" enable-background="new 0 0 512 512" height="512" viewBox="0 0 512 512" width="512" xmlns="http://www.w3.org/2000/svg"><path d="m412.971 342.092h-193.671c-12.125 0-21.955-9.829-21.955-21.955v-298.182c0-12.125 9.83-21.955 21.955-21.955h193.671c21.842 0 39.548 17.706 39.548 39.548v262.995c0 21.842-17.707 39.549-39.548 39.549z" fill="#5ec783"/><path d="m404.316 314.438h-175.281c-10.669 0-19.319-8.649-19.319-19.319v-248.147c0-10.67 8.649-19.319 19.319-19.319h175.281c10.669 0 19.319 8.649 19.319 19.319v248.148c0 10.669-8.649 19.318-19.319 19.318z" fill="#fcf2d0"/><path d="m341.582 342.092h-223.573c-12.125 0-21.955-9.829-21.955-21.955v-298.182c0-12.125 9.83-21.955 21.955-21.955h223.573c21.842 0 39.548 17.706 39.548 39.548v262.995c.001 21.842-17.706 39.549-39.548 39.549z" fill="#89d47f"/><path d="m341.582 342.092h-223.573c-12.125 0-21.955-9.829-21.955-21.955v-298.182c0-12.125 9.83-21.955 21.955-21.955h223.573c21.842 0 39.548 17.706 39.548 39.548v262.995c.001 21.842-17.706 39.549-39.548 39.549z" fill="#89d47f"/><path d="m167.645 0h-49.636c-12.125 0-21.955 9.83-21.955 21.955v298.182c0 12.125 9.829 21.955 21.955 21.955h92.341c-46.684-52.224-52.614-221.657-42.705-342.092z" fill="#5ec783"/><path d="m317.498 78.16-10.593-6.601c-4.857-3.027-11.012-3.027-15.869 0l-10.593 6.601c-6.056 3.774-13.901-.58-13.901-7.716v-70.444h64.857v70.443c-.001 7.136-7.845 11.491-13.901 7.717z" fill="#f7ef87"/><ellipse cx="153.901" cy="169.135" fill="#fff" rx="31.25" ry="24.886"/><ellipse cx="323.284" cy="169.135" fill="#fff" rx="31.25" ry="24.886"/><g fill="#4e5660"><path d="m186.987 149.555c-4.142 0-7.5-3.358-7.5-7.5 0-4.066-3.308-7.374-7.374-7.374s-7.374 3.308-7.374 7.374c0 4.142-3.358 7.5-7.5 7.5s-7.5-3.358-7.5-7.5c0-12.337 10.037-22.375 22.374-22.375s22.374 10.037 22.374 22.375c0 4.142-3.358 7.5-7.5 7.5z"/><path d="m319.946 149.555c-4.142 0-7.5-3.358-7.5-7.5 0-4.066-3.308-7.374-7.374-7.374s-7.374 3.308-7.374 7.374c0 4.142-3.358 7.5-7.5 7.5s-7.5-3.358-7.5-7.5c0-12.337 10.037-22.375 22.374-22.375s22.374 10.037 22.374 22.375c0 4.142-3.358 7.5-7.5 7.5z"/><path d="m238.592 174.127c-8.214 0-16.026-3.558-21.432-9.76-2.722-3.123-2.396-7.86.726-10.582 3.123-2.722 7.86-2.397 10.582.726 2.557 2.934 6.246 4.616 10.124 4.616 3.877 0 7.567-1.682 10.124-4.616 2.721-3.123 7.459-3.448 10.582-.726 3.122 2.721 3.448 7.459.726 10.582-5.406 6.203-13.217 9.76-21.432 9.76z"/></g><path d="m293.255 235.532h-109.325c-11.537 0-20.89 9.352-20.89 20.889v15.594c0 11.537 9.353 20.889 20.89 20.889h109.325c11.537 0 20.89-9.353 20.89-20.889v-15.594c-.001-11.536-9.353-20.889-20.89-20.889z" fill="#fff"/><path d="m173.052 238.613c-5.997 3.671-10.011 10.263-10.011 17.809v15.594c0 11.537 9.353 20.89 20.889 20.89h1.429c-5.065-16.067-9.125-34.433-12.307-54.293z" fill="#fcf2d0"/><path d="m263.237 271.718h-49.289c-4.142 0-7.5-3.358-7.5-7.5s3.358-7.5 7.5-7.5h49.289c4.142 0 7.5 3.358 7.5 7.5s-3.358 7.5-7.5 7.5z" fill="#4e5660"/><path d="m442.963 425.642h-363.428c-12.144 0-21.988-9.844-21.988-21.988v-39.574c0-12.143 9.844-21.988 21.988-21.988h363.428c12.143 0 21.988 9.844 21.988 21.988v39.575c0 12.143-9.844 21.987-21.988 21.987z" fill="#e8899e"/><path d="m195.745 342.092h-116.21c-12.144 0-21.988 9.844-21.988 21.988v39.575c0 12.144 9.844 21.988 21.988 21.988h124.565c-12.563-16.227-12.779-64.759-8.355-83.551z" fill="#de5c6e"/><path d="m344.812 342.092h42.869v83.551h-42.869z" fill="#f7ef87"/><path d="m261.249 391.367h-106.013c-4.142 0-7.5-3.358-7.5-7.5s3.358-7.5 7.5-7.5h106.013c4.142 0 7.5 3.358 7.5 7.5s-3.358 7.5-7.5 7.5z" fill="#4e5660"/><path d="m451.537 512h-391.074c-12.552 0-22.727-10.175-22.727-22.726v-40.905c0-12.551 10.175-22.727 22.727-22.727h391.074c12.551 0 22.726 10.175 22.726 22.727v40.905c.001 12.551-10.174 22.726-22.726 22.726z" fill="#a3defe"/><path d="m451.537 512h-391.074c-12.552 0-22.727-10.175-22.727-22.726v-40.905c0-12.551 10.175-22.727 22.727-22.727h391.074c12.551 0 22.726 10.175 22.726 22.727v40.905c.001 12.551-10.174 22.726-22.726 22.726z" fill="#a3defe"/><path d="m186.183 425.642h-125.72c-12.552 0-22.727 10.175-22.727 22.727v40.905c0 12.552 10.175 22.727 22.727 22.727h133.559c-13.049-16.818-16.302-57.571-7.839-86.359z" fill="#7acefa"/><path d="m307.548 454.43h-103.096c-5.681 0-10.286 4.605-10.286 10.286v8.211c0 5.681 4.605 10.286 10.286 10.286h103.097c5.681 0 10.286-4.605 10.286-10.286v-8.211c-.001-5.681-4.606-10.286-10.287-10.286z" fill="#fff"/><path d="m96.017 425.642h-35.554c-12.552 0-22.727 10.175-22.727 22.727v40.905c0 12.552 10.175 22.727 22.727 22.727h35.554z" fill="#f7ef87"/><path d="m415.983 425.642h35.554c12.552 0 22.726 10.175 22.726 22.727v40.905c0 12.552-10.175 22.727-22.726 22.727h-35.554z" fill="#f7ef87"/></svg>