<svg id="Capa_1" enable-background="new 0 0 512 512" height="512" viewBox="0 0 512 512" width="512" xmlns="http://www.w3.org/2000/svg"><path d="m468.106 512h-354.675c-24.242 0-43.894-19.652-43.894-43.894v-351.731c0-35.946 29.14-65.085 65.085-65.085h312.293c35.946 0 65.085 29.14 65.085 65.085v351.731c0 24.242-19.652 43.894-43.894 43.894z" fill="#fcf2d0"/><path d="m201.111 51.29h-66.489c-35.946 0-65.085 29.139-65.085 65.085v351.731c0 24.242 19.652 43.894 43.894 43.894h172.146c-43.89-50.944-97-243.888-84.466-460.71z" fill="#f6e3a3"/><path d="m512 166.071h-442.463v-49.696c0-35.946 29.14-65.085 65.085-65.085h312.293c35.946 0 65.085 29.14 65.085 65.085z" fill="#a3defe"/><path d="m201.111 51.29h-66.489c-35.946 0-65.085 29.139-65.085 65.085v49.696h130.78c-1.594-37.009-1.477-75.503.794-114.781z" fill="#7acefa"/><g fill="#474d54"><path d="m152.242 0c-16.604 0-30.065 13.46-30.065 30.065v57.822c0 16.604 13.461 30.065 30.065 30.065 16.604 0 30.065-13.461 30.065-30.065v-57.822c0-16.605-13.46-30.065-30.065-30.065z"/><path d="m429.294 0c16.604 0 30.065 13.46 30.065 30.065v57.822c0 16.604-13.46 30.065-30.065 30.065-16.604 0-30.065-13.461-30.065-30.065v-57.822c0-16.605 13.461-30.065 30.065-30.065z"/><path d="m350.185 433.693c-4.143 0-7.5-3.358-7.5-7.5v-101.551h-15.809c-4.143 0-7.5-3.358-7.5-7.5s3.357-7.5 7.5-7.5h23.309c4.142 0 7.5 3.358 7.5 7.5v109.051c0 4.142-3.358 7.5-7.5 7.5z"/><path d="m245.692 434.248c-20.804 0-22.28-.493-23.277-.825-2.568-.857-4.483-2.785-5.254-5.29-1.371-4.461.414-6.799 7.058-15.498 5.559-7.279 15.906-20.827 33.24-45.594 5.399-7.716 8.88-14.685 10.35-20.719l.423-3.314c-.234-11.049-9.295-19.964-20.399-19.964-9.73 0-18.15 6.914-20.021 16.44-.798 4.064-4.732 6.713-8.805 5.915-4.064-.798-6.712-4.74-5.914-8.804 3.248-16.543 17.858-28.551 34.739-28.551 19.522 0 35.404 15.882 35.404 35.404 0 .318-.021.635-.06.951l-.539 4.218c-.032.25-.076.498-.134.744-1.854 7.993-6.145 16.835-12.755 26.28-15.681 22.405-25.716 35.74-31.682 43.572 11.536.056 28.972-.069 42.197-.235h.097c4.098 0 7.445 3.296 7.497 7.406.053 4.142-3.263 7.542-7.404 7.594-15.358.193-26.561.27-34.761.27z"/></g><ellipse cx="196.609" cy="261.404" fill="#eda1ab" rx="34.743" ry="27.668"/><ellipse cx="384.928" cy="261.404" fill="#eda1ab" rx="34.743" ry="27.668"/><path d="m233.394 238.796c-4.143 0-7.5-3.358-7.5-7.5 0-4.983-4.054-9.037-9.036-9.037-4.983 0-9.037 4.054-9.037 9.037 0 4.142-3.357 7.5-7.5 7.5s-7.5-3.358-7.5-7.5c0-13.254 10.783-24.037 24.037-24.037s24.036 10.783 24.036 24.037c0 4.143-3.358 7.5-7.5 7.5z" fill="#4e5660"/><path d="m381.217 238.796c-4.143 0-7.5-3.358-7.5-7.5 0-4.983-4.054-9.037-9.037-9.037s-9.037 4.054-9.037 9.037c0 4.142-3.357 7.5-7.5 7.5s-7.5-3.358-7.5-7.5c0-13.254 10.783-24.037 24.037-24.037s24.037 10.783 24.037 24.037c0 4.143-3.358 7.5-7.5 7.5z" fill="#4e5660"/><path d="m290.769 266.116c-8.89 0-17.345-3.85-23.196-10.564-2.721-3.122-2.396-7.86.727-10.581 3.122-2.722 7.859-2.397 10.582.726 3.001 3.444 7.334 5.419 11.888 5.419s8.886-1.975 11.887-5.418c2.721-3.123 7.459-3.448 10.581-.727 3.123 2.721 3.449 7.458.728 10.581-5.852 6.714-14.307 10.564-23.197 10.564z" fill="#4e5660"/><path d="m380.739 512c72.493 0 131.261-58.768 131.261-131.261-21.236 21.236-51.355 31.022-81.017 26.322-14.03-2.223-26.145 9.892-23.922 23.922 4.699 29.662-5.087 59.781-26.322 81.017z" fill="#f6e3a3"/><ellipse cx="137.666" cy="325.922" fill="#6fce91" rx="26.926" ry="64.467"/><ellipse cx="49.414" cy="325.922" fill="#6fce91" rx="26.926" ry="64.467" transform="matrix(.707 -.707 .707 .707 -215.989 130.402)"/><path d="m158.337 466.986c9.505-5.447 12.795-17.569 7.347-27.074-.937-1.635-1.981-3.429-3.124-5.392-14.528-24.949-44.756-76.864-73.146-181.535-2.868-10.574-13.76-16.82-24.338-13.952-10.573 2.868-16.82 13.765-13.952 24.338 29.761 109.724 61.769 164.695 77.152 191.113 1.093 1.877 2.092 3.592 2.988 5.156 5.439 9.491 17.557 12.801 27.073 7.346z" fill="#8ee2cf"/><path d="m319.481 116.18h-57.426c-4.143 0-7.5-3.358-7.5-7.5s3.357-7.5 7.5-7.5h57.426c4.143 0 7.5 3.358 7.5 7.5s-3.357 7.5-7.5 7.5z" fill="#fff"/></svg>