<svg id="Capa_1" enable-background="new 0 0 512 512" height="512" viewBox="0 0 512 512" width="512" xmlns="http://www.w3.org/2000/svg"><path d="m.095 237.638c4.671 133.109 121.788 218.879 234.878 269.839 13.382 6.03 28.672 6.03 42.054 0 113.09-50.959 230.207-136.729 234.878-269.839 2.915-83.066-61.735-153.807-144.849-154.497-44.253-.368-84.003 18.93-111.056 49.671-27.053-30.742-66.802-50.039-111.055-49.671-83.115.691-147.765 71.431-144.85 154.497z" fill="#e8899e"/><path d="m234.973 507.477c13.382 6.03 28.672 6.03 42.054 0 13.825-6.23 27.709-12.984 41.442-20.277-256.931-20.109-281.277-257.347-202.429-400.901-68.686 14.618-118.512 78.195-115.945 151.339 4.67 133.11 121.788 218.88 234.878 269.839z" fill="#e26e7e"/><path d="m192.644 419.927c-5.455 0-10.994-.13-16.639-.398-14.409-.687-25.532-12.924-24.846-27.333.687-14.409 12.928-25.52 27.333-24.846 48.648 2.319 94.438-7.338 136.093-28.702 39.093-20.05 60.257-43.259 64.103-47.708 9.434-10.912 25.927-12.112 36.841-2.678 10.912 9.434 12.112 25.928 2.678 36.84-8.666 10.025-86.152 94.825-225.563 94.825z" fill="#e8899e"/><path d="m192.644 427.427c-5.613 0-11.331-.137-16.996-.407-18.516-.882-32.862-16.664-31.98-35.182.882-18.501 16.688-32.845 35.175-31.98 47.333 2.255 91.845-7.125 132.319-27.884 37.857-19.417 58.165-41.674 61.852-45.939 2.708-3.134 7.444-3.479 10.579-.769 3.134 2.709 3.478 7.445.769 10.579-4.005 4.633-26.027 28.793-66.354 49.476-42.838 21.971-89.896 31.898-139.873 29.521-10.236-.49-18.996 7.465-19.484 17.711-.489 10.255 7.456 18.996 17.711 19.484 5.429.259 10.907.39 16.282.39 136.228 0 211.729-82.79 219.889-92.229 2.708-3.134 7.445-3.479 10.579-.769 3.134 2.709 3.478 7.445.769 10.579-8.62 9.97-88.341 97.419-231.237 97.419z" fill="#e26e7e"/><path d="m329.779 398.679c-54.348 0-101.027-7.806-142.704-23.863-36.018-13.878-61.977-31.537-82.836-45.726-1.799-1.224-3.571-2.43-5.32-3.613-11.948-8.082-15.083-24.319-7.002-36.268 8.08-11.948 24.319-15.085 36.268-7.002 1.787 1.208 3.597 2.44 5.437 3.691 39.65 26.973 88.996 60.543 196.157 60.543 14.425 0 26.119 11.694 26.119 26.119s-11.694 26.119-26.119 26.119z" fill="#e8899e"/><path d="m329.779 406.179c-55.287 0-102.848-7.97-145.4-24.365-36.827-14.189-63.182-32.118-84.358-46.523-1.795-1.222-3.561-2.423-5.304-3.602-3.431-2.321-4.33-6.984-2.009-10.415 2.322-3.43 6.984-4.33 10.415-2.009 1.754 1.188 3.533 2.396 5.337 3.625 20.537 13.971 46.099 31.36 81.312 44.927 40.801 15.72 86.598 23.362 140.008 23.362 10.266 0 18.619-8.353 18.619-18.619s-8.352-18.619-18.619-18.619c-109.469 0-159.874-34.289-200.374-61.84l-.168-.115c-1.776-1.208-3.526-2.398-5.253-3.566-3.431-2.321-4.331-6.983-2.01-10.414s6.984-4.33 10.415-2.01c1.738 1.176 3.499 2.374 5.286 3.589l.167.113c38.8 26.395 87.087 59.244 191.939 59.244 18.538 0 33.619 15.081 33.619 33.619s-15.084 33.618-33.622 33.618z" fill="#e26e7e"/><path d="m346.72 49.884c1.508 42.977 39.322 70.67 75.836 87.124 4.321 1.947 9.258 1.947 13.578 0 36.514-16.453 74.328-44.146 75.836-87.123.941-26.82-19.932-49.66-46.768-49.883-14.288-.119-27.122 6.112-35.857 16.037-8.734-9.926-21.569-16.156-35.857-16.037-26.835.223-47.709 23.063-46.768 49.882z" fill="#e26e7e"/><path d="m190.059 242.932c-.053 16.958-17.36 30.652-38.655 30.585s-38.515-13.868-38.462-30.827 17.359-30.652 38.655-30.585c21.294.067 38.515 13.869 38.462 30.827z" fill="#fff"/><path d="m321.941 243.346c-.053 16.958 17.167 30.76 38.462 30.826 21.295.067 38.602-13.626 38.655-30.585s-17.167-30.76-38.462-30.827-38.601 13.627-38.655 30.586z" fill="#fff"/><g fill="#4e5660"><path d="m287.161 219.644c.06-19.213-13.853-21.061-31.022-21.115s-31.093 1.708-31.154 20.92c-.06 19.212 13.81 34.83 30.979 34.884 17.17.054 31.137-15.477 31.197-34.689z"/><path d="m192.43 217.026c-.008 0-.016 0-.024 0-4.142-.013-7.489-3.382-7.476-7.524.009-2.899-1.111-5.628-3.154-7.684-2.044-2.056-4.765-3.193-7.664-3.203-.011 0-.023 0-.035 0-5.969 0-10.834 4.846-10.853 10.819-.013 4.134-3.369 7.477-7.5 7.477-.008 0-.016 0-.024 0-4.142-.013-7.489-3.381-7.477-7.523.044-14.227 11.634-25.772 25.852-25.772h.082c6.906.021 13.389 2.731 18.257 7.629s7.537 11.399 7.515 18.305c-.013 4.134-3.368 7.476-7.499 7.476z"/><path d="m356.486 217.54c-.008 0-.016 0-.024 0-4.142-.013-7.489-3.381-7.477-7.523.009-2.899-1.111-5.627-3.155-7.684-2.043-2.056-4.765-3.194-7.664-3.203-2.934-.017-5.628 1.111-7.685 3.154-2.056 2.043-3.193 4.766-3.203 7.665-.013 4.134-3.369 7.477-7.499 7.477-.008 0-.016 0-.024 0-4.142-.013-7.489-3.381-7.477-7.523.022-6.906 2.731-13.39 7.629-18.257 4.878-4.848 11.346-7.515 18.221-7.515h.085c6.905.021 13.389 2.731 18.256 7.629 4.868 4.898 7.537 11.399 7.515 18.304-.011 4.133-3.367 7.476-7.498 7.476z"/></g></svg>